# xmcd CD database file
#
# Track frame offsets:
#	150
#	13131
#	26754
#	38537
#	50704
#	62019
#	77133
#	88332
#	104614
#	117896
#	131005
#	143955
#	159677
#	172553
#	186425
#	194928
#	208612
#	220590
#
# Disc length: 3158 seconds
#
# Revision: 1
# Processed by: cddbd v1.5.2PL0 Copyright (c) Steve Scherf et al.
# Submitted via: CDex 1.51
#
DISCID=0b0c5412
DTITLE=Schtärneföifi - Wältberüemt
DYEAR=2009
DGENRE=Kinder Musik
TTITLE0=Frau Dokter
TTITLE1=Dinosaurier
TTITLE2=Hey Kännsch Mi Nümme?
TTITLE3=Gheimnis
TTITLE4=Hitzgi
TTITLE5=Heicho Feat. The Dixie Cups
TTITLE6=Mis Zimmer
TTITLE7=Himbeerzältli
TTITLE8=Trampolin
TTITLE9=Pressant
TTITLE10=Schtärneföifi Privat
TTITLE11=Wältberüemt
TTITLE12=Chöigummibagge
TTITLE13=Mammutskelett
TTITLE14=Blonde Schnauz
TTITLE15=Ziitlupemaa
TTITLE16=Yebeqagnal
TTITLE17=Wieso isch Züri so beliebt?
EXTD=YEAR: 2009
EXTT0=
EXTT1=
EXTT2=
EXTT3=
EXTT4=
EXTT5=
EXTT6=
EXTT7=
EXTT8=
EXTT9=
EXTT10=
EXTT11=
EXTT12=
EXTT13=
EXTT14=
EXTT15=
EXTT16=
EXTT17=
PLAYORDER=
